<?xml version="1.0" encoding="UTF-8" standalone="no"?>
<svg
   xmlns:dc="http://purl.org/dc/elements/1.1/"
   xmlns:cc="http://creativecommons.org/ns#"
   xmlns:rdf="http://www.w3.org/1999/02/22-rdf-syntax-ns#"
   xmlns:svg="http://www.w3.org/2000/svg"
   xmlns="http://www.w3.org/2000/svg"
   xmlns:sodipodi="http://sodipodi.sourceforge.net/DTD/sodipodi-0.dtd"
   xmlns:inkscape="http://www.inkscape.org/namespaces/inkscape"
   version="1.0"
   width="49.369999mm"
   height="61.75mm"
   id="svg4565"
   sodipodi:docname="OQlogoThick.svg"
   inkscape:version="0.92.2 (5c3e80d, 2017-08-06)">
  <metadata
     id="metadata4569">
    <rdf:RDF>
      <cc:Work
         rdf:about="">
        <dc:format>image/svg+xml</dc:format>
        <dc:type
           rdf:resource="http://purl.org/dc/dcmitype/StillImage" />
        <dc:title></dc:title>
      </cc:Work>
    </rdf:RDF>
  </metadata>
  <sodipodi:namedview
     pagecolor="#ffffff"
     bordercolor="#666666"
     borderopacity="1"
     objecttolerance="10"
     gridtolerance="10"
     guidetolerance="10"
     inkscape:pageopacity="0"
     inkscape:pageshadow="2"
     inkscape:window-width="1440"
     inkscape:window-height="837"
     id="namedview4567"
     showgrid="false"
     inkscape:zoom="2.8622132"
     inkscape:cx="36.523389"
     inkscape:cy="116.69291"
     inkscape:window-x="1272"
     inkscape:window-y="-8"
     inkscape:window-maximized="1"
     inkscape:current-layer="svg4565" />
  <defs
     id="defs4505">
    <pattern
       id="EMFhbasepattern"
       patternUnits="userSpaceOnUse"
       width="6"
       height="6"
       x="0"
       y="0" />
  </defs>
  <path
     style="fill:#716f6e;fill-rule:evenodd;fill-opacity:1;stroke:none;"
     d="  M 105.30016,211.93323   C 95.969764,214.59906 89.305197,218.5978 89.305197,222.59654   C 90.63811,225.26236 98.635591,226.59528 107.96598,223.92945   C 117.29638,221.26362 123.96094,217.26488 122.62803,213.26614   C 122.62803,209.2674 113.29764,209.2674 105.30016,211.93323   z "
     id="path4507" />
  <path
     style="fill:none;stroke:#24211d;stroke-width:3;stroke-linecap:round;stroke-linejoin:round;stroke-miterlimit:4;stroke-dasharray:none;stroke-opacity:1"
     d="  M 105.30016,211.93323   C 95.969764,214.59906 89.305197,218.5978 89.305197,222.59654   C 90.63811,225.26236 98.635591,226.59528 107.96598,223.92945   C 117.29638,221.26362 123.96094,217.26488 122.62803,213.26614   C 122.62803,209.2674 113.29764,209.2674 105.30016,211.93323   z "
     id="path4509" />
  <path
     style="fill:#c1c0bf;fill-rule:evenodd;fill-opacity:1;stroke:none;"
     d="  M 118.62929,223.92945   C 119.9622,207.93449 114.63055,193.27244 122.62803,174.61165   C 137.29008,154.61795 153.28504,141.28882 166.61417,122.62803   C 178.61039,106.63307 186.60787,89.305197 186.60787,63.979843   C 186.60787,45.319055 171.94583,27.991181 151.95213,15.994961   C 135.95717,5.3316535 121.29512,0 102.63433,1.3329134   C 79.974803,1.3329134 66.645669,5.3316535 49.317795,17.327874   C 39.987402,29.324094 34.655748,37.321575 31.989921,54.649449   C 29.324094,71.977323 27.991181,98.635591 37.321575,103.96724   C 35.988661,105.30016 34.655748,106.63307 31.989921,107.96598   C 26.658268,103.96724 18.660787,102.63433 15.994961,103.96724   L 1.3329134,115.96346   C 0,117.29638 1.3329134,137.29008 11.99622,150.61921   C 23.992441,167.94709 31.989921,169.28 34.655748,169.28   L 43.986142,163.94835   C 43.986142,163.94835 46.651969,162.61543 49.317795,163.94835   C 55.982362,166.61417 70.644409,165.28126 78.64189,165.28126   C 85.306457,165.28126 86.63937,165.28126 90.63811,171.94583   C 95.969764,182.60913 95.969764,209.2674 95.969764,227.92819   z "
     id="path4511" />
  <path
     style="fill:none;stroke:#24211d;stroke-width:3;stroke-linecap:round;stroke-linejoin:round;stroke-miterlimit:4;stroke-dasharray:none;stroke-opacity:1"
     d="  M 118.62929,223.92945   C 119.9622,207.93449 114.63055,193.27244 122.62803,174.61165   C 137.29008,154.61795 153.28504,141.28882 166.61417,122.62803   C 178.61039,106.63307 186.60787,89.305197 186.60787,63.979843   C 186.60787,45.319055 171.94583,27.991181 151.95213,15.994961   C 135.95717,5.3316535 121.29512,0 102.63433,1.3329134   C 79.974803,1.3329134 66.645669,5.3316535 49.317795,17.327874   C 39.987402,29.324094 34.655748,37.321575 31.989921,54.649449   C 29.324094,71.977323 27.991181,98.635591 37.321575,103.96724   C 35.988661,105.30016 34.655748,106.63307 31.989921,107.96598   C 26.658268,103.96724 18.660787,102.63433 15.994961,103.96724   L 1.3329134,115.96346   C 0,117.29638 1.3329134,137.29008 11.99622,150.61921   C 23.992441,167.94709 31.989921,169.28 34.655748,169.28   L 43.986142,163.94835   C 43.986142,163.94835 46.651969,162.61543 49.317795,163.94835   C 55.982362,166.61417 70.644409,165.28126 78.64189,165.28126   C 85.306457,165.28126 86.63937,165.28126 90.63811,171.94583   C 95.969764,182.60913 95.969764,209.2674 95.969764,227.92819   z "
     id="path4513" />
  <path
     style="fill:#949393;fill-rule:evenodd;fill-opacity:1;stroke:none;"
     d="  M 114.63055,102.63433   C 123.96094,82.64063 125.29386,51.983622 121.29512,39.987402   C 114.63055,23.992441 101.30142,13.329134 79.974803,7.9974803   C 71.977323,6.6645669 61.314016,6.6645669 51.983622,15.994961   C 39.987402,27.991181 34.655748,37.321575 31.989921,54.649449   C 29.324094,71.977323 27.991181,98.635591 37.321575,103.96724   C 35.988661,105.30016 34.655748,106.63307 31.989921,107.96598   C 26.658268,103.96724 18.660787,102.63433 15.994961,103.96724   L 1.3329134,115.96346   C 0,117.29638 1.3329134,137.29008 11.99622,151.95213   C 23.992441,167.94709 34.655748,169.28 34.655748,169.28   L 43.986142,163.94835   C 43.986142,163.94835 46.651969,162.61543 49.317795,163.94835   C 55.982362,166.61417 69.311496,166.61417 74.64315,161.28252   C 102.63433,135.95717 107.96598,115.96346 114.63055,102.63433   z "
     id="path4515" />
  <path
     style="fill:none;stroke:#24211d;stroke-width:3;stroke-linecap:round;stroke-linejoin:round;stroke-miterlimit:4;stroke-dasharray:none;stroke-opacity:1"
     d="  M 114.63055,102.63433   C 123.96094,82.64063 125.29386,51.983622 121.29512,39.987402   C 114.63055,23.992441 101.30142,13.329134 79.974803,7.9974803   C 71.977323,6.6645669 61.314016,6.6645669 51.983622,15.994961   C 39.987402,27.991181 34.655748,37.321575 31.989921,54.649449   C 29.324094,71.977323 27.991181,98.635591 37.321575,103.96724   C 35.988661,105.30016 34.655748,106.63307 31.989921,107.96598   C 26.658268,103.96724 18.660787,102.63433 15.994961,103.96724   L 1.3329134,115.96346   C 0,117.29638 1.3329134,137.29008 11.99622,151.95213   C 23.992441,167.94709 34.655748,169.28 34.655748,169.28   L 43.986142,163.94835   C 43.986142,163.94835 46.651969,162.61543 49.317795,163.94835   C 55.982362,166.61417 69.311496,166.61417 74.64315,161.28252   C 102.63433,135.95717 107.96598,115.96346 114.63055,102.63433   z "
     id="path4517" />
  <path
     style="fill:#4e4b49;fill-rule:evenodd;fill-opacity:1;stroke:none;"
     d="  M 9.3303937,127.95969   C 7.9974803,133.29134 10.663307,143.95465 15.994961,150.61921   C 21.326614,158.61669 27.991181,159.94961 29.324094,154.61795   C 30.657008,149.2863 26.658268,139.95591 21.326614,131.95843   C 15.994961,125.29386 10.663307,123.96094 9.3303937,127.95969   z "
     id="path4519" />
  <path
     style="fill:none;stroke:#24211d;stroke-width:1.3329134px;stroke-linecap:round;stroke-linejoin:round;stroke-miterlimit:4;stroke-dasharray:none;stroke-opacity:1;"
     d="  M 9.3303937,127.95969   C 7.9974803,133.29134 10.663307,143.95465 15.994961,150.61921   C 21.326614,158.61669 27.991181,159.94961 29.324094,154.61795   C 30.657008,149.2863 26.658268,139.95591 21.326614,131.95843   C 15.994961,125.29386 10.663307,123.96094 9.3303937,127.95969   z "
     id="path4521" />
  <path
     style="fill:none;stroke:#24211d;stroke-width:3;stroke-linecap:round;stroke-linejoin:round;stroke-miterlimit:4;stroke-dasharray:none;stroke-opacity:1"
     d="  M 1.3329134,117.29638   C 0,126.62677 6.6645669,145.28756 15.994961,157.28378   C 26.658268,170.61291 37.321575,173.27874 38.654488,163.94835   C 41.320315,154.61795 34.655748,135.95717 23.992441,123.96094   C 14.662047,110.63181 3.9987402,107.96598 1.3329134,117.29638   z "
     id="path4523" />
  <path
     style="fill:none;stroke:#24211d;stroke-width:3.1;stroke-linecap:round;stroke-linejoin:round;stroke-miterlimit:4;stroke-dasharray:none;stroke-opacity:1"
     d="  M 31.989921,107.96598   C 42.653228,118.62929 54.649449,142.62173 50.650709,157.28378   C 49.317795,159.94961 47.984882,161.28252 45.319055,162.61543   M 47.984882,139.95591   L 47.984882,139.95591  "
     id="path4525" />
  <path
     style="fill:none;stroke:#24211d;stroke-width:3;stroke-linecap:round;stroke-linejoin:round;stroke-miterlimit:4;stroke-dasharray:none;stroke-opacity:1"
     d="  M 5.3316535,121.29512   C 3.9987402,129.2926 9.3303937,143.95465 17.327874,154.61795   C 25.325354,165.28126 34.655748,167.94709 35.988661,159.94961   C 37.321575,151.95213 31.989921,137.29008 23.992441,126.62677   C 14.662047,115.96346 6.6645669,113.29764 5.3316535,121.29512   z "
     id="path4527" />
  <path
     style="fill:#4e4b49;fill-rule:evenodd;fill-opacity:1;stroke:none;"
     d="  M 66.645669,139.95591   C 62.646929,139.95591 58.648189,143.95465 58.648189,149.2863   C 58.648189,153.28504 62.646929,157.28378 66.645669,157.28378   C 71.977323,157.28378 75.976063,153.28504 75.976063,149.2863   C 75.976063,143.95465 71.977323,139.95591 66.645669,139.95591   z "
     id="path4529" />
  <path
     style="fill:none;stroke:#24211d;stroke-width:3;stroke-linecap:round;stroke-linejoin:round;stroke-miterlimit:4;stroke-dasharray:none;stroke-opacity:1"
     d="  M 66.645669,139.95591   C 62.646929,139.95591 58.648189,143.95465 58.648189,149.2863   C 58.648189,153.28504 62.646929,157.28378 66.645669,157.28378   C 71.977323,157.28378 75.976063,153.28504 75.976063,149.2863   C 75.976063,143.95465 71.977323,139.95591 66.645669,139.95591   z "
     id="path4531" />
  <path
     style="fill:none;stroke:#24211d;stroke-width:3;stroke-linecap:round;stroke-linejoin:round;stroke-miterlimit:4;stroke-dasharray:none;stroke-opacity:1"
     d="  M 43.986142,98.635591   L 38.654488,103.96724  "
     id="path4533" />
  <path
     style="fill:#c1c0bf;fill-rule:evenodd;fill-opacity:1;stroke:none;"
     d="  M 67.978583,43.986142   C 61.314016,45.319055 55.982362,57.315276 57.315276,71.977323   C 58.648189,86.63937 65.312756,97.302677 71.977323,97.302677   C 79.974803,95.969764 83.973543,83.973543 83.973543,69.311496   C 82.64063,55.982362 75.976063,43.986142 67.978583,43.986142   z "
     id="path4535" />
  <path
     style="fill:none;stroke:#24211d;stroke-width:3;stroke-linecap:round;stroke-linejoin:round;stroke-miterlimit:4;stroke-dasharray:none;stroke-opacity:1"
     d="  M 67.978583,43.986142   C 61.314016,45.319055 55.982362,57.315276 57.315276,71.977323   C 58.648189,86.63937 65.312756,97.302677 71.977323,97.302677   C 79.974803,95.969764 83.973543,83.973543 83.973543,69.311496   C 82.64063,55.982362 75.976063,43.986142 67.978583,43.986142   z "
     id="path4537" />
  <path
     style="fill:#3b3734;fill-rule:evenodd;fill-opacity:1;stroke:none;"
     d="  M 66.645669,59.981102   C 63.979843,59.981102 62.646929,63.979843 62.646929,69.311496   C 62.646929,73.310236 65.312756,77.308976 67.978583,77.308976   C 70.644409,77.308976 71.977323,73.310236 71.977323,67.978583   C 70.644409,63.979843 69.311496,59.981102 66.645669,59.981102   z "
     id="path4539" />
  <path
     style="fill:none;stroke:#24211d;stroke-width:3;stroke-linecap:round;stroke-linejoin:round;stroke-miterlimit:4;stroke-dasharray:none;stroke-opacity:1"
     d="  M 66.645669,59.981102   C 63.979843,59.981102 62.646929,63.979843 62.646929,69.311496   C 62.646929,73.310236 65.312756,77.308976 67.978583,77.308976   C 70.644409,77.308976 71.977323,73.310236 71.977323,67.978583   C 70.644409,63.979843 69.311496,59.981102 66.645669,59.981102   z "
     id="path4541" />
  <path
     style="fill:none;stroke:#24211d;stroke-width:3;stroke-linecap:round;stroke-linejoin:round;stroke-miterlimit:4;stroke-dasharray:none;stroke-opacity:1"
     d="  M 81.307717,95.969764   C 90.63811,83.973543 89.305197,47.984882 73.310236,41.320315  "
     id="path4543" />
  <path
     style="fill:none;stroke:#24211d;stroke-width:1.3329134px;stroke-linecap:round;stroke-linejoin:round;stroke-miterlimit:4;stroke-dasharray:none;stroke-opacity:1;"
     d="  M 58.648189,77.308976   L 58.648189,77.308976   C 58.648189,77.308976 58.648189,77.308976 58.648189,77.308976   z "
     id="path4545" />
  <path
     style="fill:#c1c0bf;fill-rule:evenodd;fill-opacity:1;stroke:none;"
     d="  M 42.653228,34.655748   C 34.655748,33.322835 26.658268,42.653228 23.992441,57.315276   C 19.993701,70.644409 22.659528,83.973543 29.324094,85.306457   C 35.988661,87.972283 45.319055,77.308976 47.984882,62.646929   C 51.983622,49.317795 49.317795,35.988661 42.653228,34.655748   z "
     id="path4547" />
  <path
     style="fill:none;stroke:#24211d;stroke-width:3;stroke-linecap:round;stroke-linejoin:round;stroke-miterlimit:4;stroke-dasharray:none;stroke-opacity:1"
     d="  M 42.653228,34.655748   C 34.655748,33.322835 26.658268,42.653228 23.992441,57.315276   C 19.993701,70.644409 22.659528,83.973543 29.324094,85.306457   C 35.988661,87.972283 45.319055,77.308976 47.984882,62.646929   C 51.983622,49.317795 49.317795,35.988661 42.653228,34.655748   z "
     id="path4549" />
  <path
     style="fill:#3b3734;fill-rule:evenodd;fill-opacity:1;stroke:none;"
     d="  M 41.320315,54.649449   C 38.654488,54.649449 35.988661,57.315276 34.655748,62.646929   C 33.322835,66.645669 34.655748,70.644409 37.321575,71.977323   C 38.654488,71.977323 41.320315,69.311496 42.653228,63.979843   C 43.986142,59.981102 42.653228,54.649449 41.320315,54.649449   z "
     id="path4551" />
  <path
     style="fill:none;stroke:#24211d;stroke-width:3;stroke-linecap:round;stroke-linejoin:round;stroke-miterlimit:4;stroke-dasharray:none;stroke-opacity:1"
     d="  M 41.320315,54.649449   C 38.654488,54.649449 35.988661,57.315276 34.655748,62.646929   C 33.322835,66.645669 34.655748,70.644409 37.321575,71.977323   C 38.654488,71.977323 41.320315,69.311496 42.653228,63.979843   C 43.986142,59.981102 42.653228,54.649449 41.320315,54.649449   z "
     id="path4553" />
  <path
     style="fill:none;stroke:#24211d;stroke-width:3;stroke-linecap:round;stroke-linejoin:round;stroke-miterlimit:4;stroke-dasharray:none;stroke-opacity:1"
     d="  M 38.654488,86.63937   C 43.986142,83.973543 49.317795,74.64315 51.983622,63.979843   C 55.982362,50.650709 54.649449,38.654488 49.317795,34.655748  "
     id="path4555" />
  <path
     style="fill:none;stroke:#24211d;stroke-width:3;stroke-linecap:round;stroke-linejoin:round;stroke-miterlimit:4;stroke-dasharray:none;stroke-opacity:1"
     d="  M 129.2926,66.645669   C 131.95843,65.312756 133.29134,62.646929 138.62299,62.646929   C 141.28882,62.646929 145.28756,65.312756 146.62047,70.644409   C 147.95339,75.976063 149.2863,90.63811 139.95591,109.2989   C 137.29008,114.63055 130.62551,127.95969 121.29512,129.2926   C 114.63055,131.95843 113.29764,119.9622 113.29764,114.63055  "
     id="path4557" />
  <path
     style="fill:none;stroke:#24211d;stroke-width:3;stroke-linecap:round;stroke-linejoin:round;stroke-miterlimit:4;stroke-dasharray:none;stroke-opacity:1"
     d="  M 129.2926,78.64189   C 131.95843,74.64315 133.29134,75.976063 134.62425,75.976063   C 135.95717,77.308976 138.62299,81.307717 138.62299,86.63937   C 137.29008,91.971024 135.95717,101.30142 127.95969,102.63433   C 125.29386,102.63433 122.62803,101.30142 121.29512,97.302677  "
     id="path4559" />
  <path
     style="fill:#a9a8a7;fill-rule:evenodd;fill-opacity:1;stroke:none;"
     d="  M 89.305197,221.26362   L 89.305197,221.26362   C 89.305197,221.26362 89.305197,222.59654 89.305197,222.59654   C 90.63811,225.26236 98.635591,226.59528 107.96598,223.92945   C 117.29638,221.26362 123.96094,217.26488 122.62803,213.26614   L 122.62803,213.26614   C 125.29386,217.26488 126.62677,221.26362 127.95969,225.26236   C 127.95969,225.26236 125.29386,230.59402 110.63181,231.92693   C 98.635591,231.92693 95.969764,233.25984 86.63937,230.59402   C 87.972283,227.92819 87.972283,223.92945 89.305197,221.26362   z "
     id="path4561" />
  <path
     style="fill:none;stroke:#24211d;stroke-width:3;stroke-linecap:round;stroke-linejoin:round;stroke-miterlimit:4;stroke-dasharray:none;stroke-opacity:1"
     d="  M 89.305197,221.26362   L 89.305197,221.26362   C 89.305197,221.26362 89.305197,222.59654 89.305197,222.59654   C 90.63811,225.26236 98.635591,226.59528 107.96598,223.92945   C 117.29638,221.26362 123.96094,217.26488 122.62803,213.26614   L 122.62803,213.26614   C 125.29386,217.26488 126.62677,221.26362 127.95969,225.26236   C 127.95969,225.26236 125.29386,230.59402 110.63181,231.92693   C 98.635591,231.92693 95.969764,233.25984 86.63937,230.59402   C 87.972283,227.92819 87.972283,223.92945 89.305197,221.26362   z "
     id="path4563" />
</svg>
