<?xml version="1.0" encoding="UTF-8" standalone="no"?>
<svg
   version="1.0"
   width="56.700001mm"
   height="68.75mm"
   id="svg4565"
   sodipodi:docname="OQlogo.svg"
   inkscape:version="1.2 (dc2aedaf03, 2022-05-15)"
   xmlns:inkscape="http://www.inkscape.org/namespaces/inkscape"
   xmlns:sodipodi="http://sodipodi.sourceforge.net/DTD/sodipodi-0.dtd"
   xmlns="http://www.w3.org/2000/svg"
   xmlns:svg="http://www.w3.org/2000/svg"
   xmlns:rdf="http://www.w3.org/1999/02/22-rdf-syntax-ns#"
   xmlns:cc="http://creativecommons.org/ns#"
   xmlns:dc="http://purl.org/dc/elements/1.1/">
  <metadata
     id="metadata4569">
    <rdf:RDF>
      <cc:Work
         rdf:about="">
        <dc:format>image/svg+xml</dc:format>
        <dc:type
           rdf:resource="http://purl.org/dc/dcmitype/StillImage" />
      </cc:Work>
    </rdf:RDF>
  </metadata>
  <sodipodi:namedview
     pagecolor="#ffffff"
     bordercolor="#666666"
     borderopacity="1"
     objecttolerance="10"
     gridtolerance="10"
     guidetolerance="10"
     inkscape:pageopacity="0"
     inkscape:pageshadow="2"
     inkscape:window-width="1920"
     inkscape:window-height="1017"
     id="namedview4567"
     showgrid="false"
     inkscape:zoom="2.8622132"
     inkscape:cx="93.633836"
     inkscape:cy="116.69291"
     inkscape:window-x="-8"
     inkscape:window-y="-8"
     inkscape:window-maximized="1"
     inkscape:current-layer="svg4565"
     inkscape:showpageshadow="2"
     inkscape:pagecheckerboard="0"
     inkscape:deskcolor="#d1d1d1"
     inkscape:document-units="mm" />
  <defs
     id="defs4505">
    <pattern
       id="EMFhbasepattern"
       patternUnits="userSpaceOnUse"
       width="6"
       height="6"
       x="0"
       y="0" />
  </defs>
  <path
     style="fill:#716f6e;fill-opacity:1;fill-rule:evenodd;stroke:none"
     d="m 105.30016,211.93323 c -9.330396,2.66583 -15.994963,6.66457 -15.994963,10.66331 1.332913,2.66582 9.330394,3.99874 18.660783,1.33291 9.3304,-2.66583 15.99496,-6.66457 14.66205,-10.66331 0,-3.99874 -9.33039,-3.99874 -17.32787,-1.33291 z"
     id="path4507" />
  <path
     style="fill:none;stroke:#24211d;stroke-width:1.33291px;stroke-linecap:round;stroke-linejoin:round;stroke-miterlimit:4;stroke-dasharray:none;stroke-opacity:1"
     d="m 105.30016,211.93323 c -9.330396,2.66583 -15.994963,6.66457 -15.994963,10.66331 1.332913,2.66582 9.330394,3.99874 18.660783,1.33291 9.3304,-2.66583 15.99496,-6.66457 14.66205,-10.66331 0,-3.99874 -9.33039,-3.99874 -17.32787,-1.33291 z"
     id="path4509" />
  <path
     style="fill:#c1c0bf;fill-opacity:1;fill-rule:evenodd;stroke:none"
     d="m 118.62929,223.92945 c 1.33291,-15.99496 -3.99874,-30.65701 3.99874,-49.3178 14.66205,-19.9937 30.65701,-33.32283 43.98614,-51.98362 11.99622,-15.99496 19.9937,-33.322833 19.9937,-58.648187 0,-18.660788 -14.66204,-35.988662 -34.65574,-47.984882 C 135.95717,5.3316535 121.29512,0 102.63433,1.3329134 c -22.659527,0 -35.988661,3.9987401 -53.316535,15.9949606 -9.330393,11.99622 -14.662047,19.993701 -17.327874,37.321575 -2.665827,17.327874 -3.99874,43.986142 5.331654,49.317791 -1.332914,1.33292 -2.665827,2.66583 -5.331654,3.99874 -5.331653,-3.99874 -13.329134,-5.33165 -15.99496,-3.99874 L 1.3329134,115.96346 C 0,117.29638 1.3329134,137.29008 11.99622,150.61921 23.992441,167.94709 31.989921,169.28 34.655748,169.28 l 9.330394,-5.33165 c 0,0 2.665827,-1.33292 5.331653,0 6.664567,2.66582 21.326614,1.33291 29.324095,1.33291 6.664567,0 7.99748,0 11.99622,6.66457 5.331654,10.6633 5.331654,37.32157 5.331654,55.98236 z"
     id="path4511" />
  <path
     style="fill:none;stroke:#24211d;stroke-width:1.33291px;stroke-linecap:round;stroke-linejoin:round;stroke-miterlimit:4;stroke-dasharray:none;stroke-opacity:1"
     d="m 118.62929,223.92945 c 1.33291,-15.99496 -3.99874,-30.65701 3.99874,-49.3178 14.66205,-19.9937 30.65701,-33.32283 43.98614,-51.98362 11.99622,-15.99496 19.9937,-33.322833 19.9937,-58.648187 0,-18.660788 -14.66204,-35.988662 -34.65574,-47.984882 C 135.95717,5.3316535 121.29512,0 102.63433,1.3329134 c -22.659527,0 -35.988661,3.9987401 -53.316535,15.9949606 -9.330393,11.99622 -14.662047,19.993701 -17.327874,37.321575 -2.665827,17.327874 -3.99874,43.986142 5.331654,49.317791 -1.332914,1.33292 -2.665827,2.66583 -5.331654,3.99874 -5.331653,-3.99874 -13.329134,-5.33165 -15.99496,-3.99874 L 1.3329134,115.96346 C 0,117.29638 1.3329134,137.29008 11.99622,150.61921 23.992441,167.94709 31.989921,169.28 34.655748,169.28 l 9.330394,-5.33165 c 0,0 2.665827,-1.33292 5.331653,0 6.664567,2.66582 21.326614,1.33291 29.324095,1.33291 6.664567,0 7.99748,0 11.99622,6.66457 5.331654,10.6633 5.331654,37.32157 5.331654,55.98236 z"
     id="path4513" />
  <path
     style="fill:#949393;fill-opacity:1;fill-rule:evenodd;stroke:none"
     d="m 114.63055,102.63433 c 9.33039,-19.9937 10.66331,-50.650708 6.66457,-62.646928 C 114.63055,23.992441 101.30142,13.329134 79.974803,7.9974803 71.977323,6.6645669 61.314016,6.6645669 51.983622,15.994961 39.987402,27.991181 34.655748,37.321575 31.989921,54.649449 c -2.665827,17.327874 -3.99874,43.986142 5.331654,49.317791 -1.332914,1.33292 -2.665827,2.66583 -5.331654,3.99874 -5.331653,-3.99874 -13.329134,-5.33165 -15.99496,-3.99874 L 1.3329134,115.96346 C 0,117.29638 1.3329134,137.29008 11.99622,151.95213 23.992441,167.94709 34.655748,169.28 34.655748,169.28 l 9.330394,-5.33165 c 0,0 2.665827,-1.33292 5.331653,0 6.664567,2.66582 19.993701,2.66582 25.325355,-2.66583 27.99118,-25.32535 33.32283,-45.31906 39.9874,-58.64819 z"
     id="path4515" />
  <path
     style="fill:none;stroke:#24211d;stroke-width:1.33291px;stroke-linecap:round;stroke-linejoin:round;stroke-miterlimit:4;stroke-dasharray:none;stroke-opacity:1"
     d="m 114.63055,102.63433 c 9.33039,-19.9937 10.66331,-50.650708 6.66457,-62.646928 C 114.63055,23.992441 101.30142,13.329134 79.974803,7.9974803 71.977323,6.6645669 61.314016,6.6645669 51.983622,15.994961 39.987402,27.991181 34.655748,37.321575 31.989921,54.649449 c -2.665827,17.327874 -3.99874,43.986142 5.331654,49.317791 -1.332914,1.33292 -2.665827,2.66583 -5.331654,3.99874 -5.331653,-3.99874 -13.329134,-5.33165 -15.99496,-3.99874 L 1.3329134,115.96346 C 0,117.29638 1.3329134,137.29008 11.99622,151.95213 23.992441,167.94709 34.655748,169.28 34.655748,169.28 l 9.330394,-5.33165 c 0,0 2.665827,-1.33292 5.331653,0 6.664567,2.66582 19.993701,2.66582 25.325355,-2.66583 27.99118,-25.32535 33.32283,-45.31906 39.9874,-58.64819 z"
     id="path4517" />
  <path
     style="fill:#4e4b49;fill-opacity:1;fill-rule:evenodd;stroke:none"
     d="m 9.3303937,127.95969 c -1.3329134,5.33165 1.3329133,15.99496 6.6645673,22.65952 5.331653,7.99748 11.99622,9.3304 13.329133,3.99874 1.332914,-5.33165 -2.665826,-14.66204 -7.99748,-22.65952 -5.331653,-6.66457 -10.663307,-7.99749 -11.9962203,-3.99874 z"
     id="path4519" />
  <path
     style="fill:none;stroke:#24211d;stroke-width:1.33291px;stroke-linecap:round;stroke-linejoin:round;stroke-miterlimit:4;stroke-dasharray:none;stroke-opacity:1"
     d="m 9.3303937,127.95969 c -1.3329134,5.33165 1.3329133,15.99496 6.6645673,22.65952 5.331653,7.99748 11.99622,9.3304 13.329133,3.99874 1.332914,-5.33165 -2.665826,-14.66204 -7.99748,-22.65952 -5.331653,-6.66457 -10.663307,-7.99749 -11.9962203,-3.99874 z"
     id="path4521" />
  <path
     style="fill:none;stroke:#24211d;stroke-width:1.33291px;stroke-linecap:round;stroke-linejoin:round;stroke-miterlimit:4;stroke-dasharray:none;stroke-opacity:1"
     d="M 1.3329134,117.29638 C 0,126.62677 6.6645669,145.28756 15.994961,157.28378 c 10.663307,13.32913 21.326614,15.99496 22.659527,6.66457 2.665827,-9.3304 -3.99874,-27.99118 -14.662047,-39.98741 C 14.662047,110.63181 3.9987402,107.96598 1.3329134,117.29638 Z"
     id="path4523" />
  <path
     style="fill:none;stroke:#24211d;stroke-width:1.33291px;stroke-linecap:round;stroke-linejoin:round;stroke-miterlimit:4;stroke-dasharray:none;stroke-opacity:1"
     d="m 31.989921,107.96598 c 10.663307,10.66331 22.659528,34.65575 18.660788,49.3178 -1.332914,2.66583 -2.665827,3.99874 -5.331654,5.33165 m 2.665827,-22.65952 v 0"
     id="path4525" />
  <path
     style="fill:none;stroke:#24211d;stroke-width:1.33291px;stroke-linecap:round;stroke-linejoin:round;stroke-miterlimit:4;stroke-dasharray:none;stroke-opacity:1"
     d="m 5.3316535,121.29512 c -1.3329133,7.99748 3.9987402,22.65953 11.9962205,33.32283 7.99748,10.66331 17.327874,13.32914 18.660787,5.33166 1.332914,-7.99748 -3.99874,-22.65953 -11.99622,-33.32284 C 14.662047,115.96346 6.6645669,113.29764 5.3316535,121.29512 Z"
     id="path4527" />
  <path
     style="fill:#4e4b49;fill-opacity:1;fill-rule:evenodd;stroke:none"
     d="m 66.645669,139.95591 c -3.99874,0 -7.99748,3.99874 -7.99748,9.33039 0,3.99874 3.99874,7.99748 7.99748,7.99748 5.331654,0 9.330394,-3.99874 9.330394,-7.99748 0,-5.33165 -3.99874,-9.33039 -9.330394,-9.33039 z"
     id="path4529" />
  <path
     style="fill:none;stroke:#24211d;stroke-width:1.33291px;stroke-linecap:round;stroke-linejoin:round;stroke-miterlimit:4;stroke-dasharray:none;stroke-opacity:1"
     d="m 66.645669,139.95591 c -3.99874,0 -7.99748,3.99874 -7.99748,9.33039 0,3.99874 3.99874,7.99748 7.99748,7.99748 5.331654,0 9.330394,-3.99874 9.330394,-7.99748 0,-5.33165 -3.99874,-9.33039 -9.330394,-9.33039 z"
     id="path4531" />
  <path
     style="fill:none;stroke:#24211d;stroke-width:1.33291px;stroke-linecap:round;stroke-linejoin:round;stroke-miterlimit:4;stroke-dasharray:none;stroke-opacity:1"
     d="m 43.986142,98.635591 -5.331654,5.331649"
     id="path4533" />
  <path
     style="fill:#c1c0bf;fill-opacity:1;fill-rule:evenodd;stroke:none"
     d="m 67.978583,43.986142 c -6.664567,1.332913 -11.996221,13.329134 -10.663307,27.991181 1.332913,14.662047 7.99748,25.325354 14.662047,25.325354 7.99748,-1.332913 11.99622,-13.329134 11.99622,-27.991181 C 82.64063,55.982362 75.976063,43.986142 67.978583,43.986142 Z"
     id="path4535" />
  <path
     style="fill:none;stroke:#24211d;stroke-width:1.33291px;stroke-linecap:round;stroke-linejoin:round;stroke-miterlimit:4;stroke-dasharray:none;stroke-opacity:1"
     d="m 67.978583,43.986142 c -6.664567,1.332913 -11.996221,13.329134 -10.663307,27.991181 1.332913,14.662047 7.99748,25.325354 14.662047,25.325354 7.99748,-1.332913 11.99622,-13.329134 11.99622,-27.991181 C 82.64063,55.982362 75.976063,43.986142 67.978583,43.986142 Z"
     id="path4537" />
  <path
     style="fill:#3b3734;fill-opacity:1;fill-rule:evenodd;stroke:none"
     d="m 66.645669,59.981102 c -2.665826,0 -3.99874,3.998741 -3.99874,9.330394 0,3.99874 2.665827,7.99748 5.331654,7.99748 2.665826,0 3.99874,-3.99874 3.99874,-9.330393 -1.332914,-3.99874 -2.665827,-7.997481 -5.331654,-7.997481 z"
     id="path4539" />
  <path
     style="fill:none;stroke:#24211d;stroke-width:1.33291px;stroke-linecap:round;stroke-linejoin:round;stroke-miterlimit:4;stroke-dasharray:none;stroke-opacity:1"
     d="m 66.645669,59.981102 c -2.665826,0 -3.99874,3.998741 -3.99874,9.330394 0,3.99874 2.665827,7.99748 5.331654,7.99748 2.665826,0 3.99874,-3.99874 3.99874,-9.330393 -1.332914,-3.99874 -2.665827,-7.997481 -5.331654,-7.997481 z"
     id="path4541" />
  <path
     style="fill:none;stroke:#24211d;stroke-width:1.33291px;stroke-linecap:round;stroke-linejoin:round;stroke-miterlimit:4;stroke-dasharray:none;stroke-opacity:1"
     d="M 81.307717,95.969764 C 90.63811,83.973543 89.305197,47.984882 73.310236,41.320315"
     id="path4543" />
  <path
     style="fill:none;stroke:#24211d;stroke-width:1.33291px;stroke-linecap:round;stroke-linejoin:round;stroke-miterlimit:4;stroke-dasharray:none;stroke-opacity:1"
     d="m 58.648189,77.308976 v 0 c 0,0 0,0 0,0 z"
     id="path4545" />
  <path
     style="fill:#c1c0bf;fill-opacity:1;fill-rule:evenodd;stroke:none"
     d="m 42.653228,34.655748 c -7.99748,-1.332913 -15.99496,7.99748 -18.660787,22.659528 -3.99874,13.329133 -1.332913,26.658267 5.331653,27.991181 6.664567,2.665826 15.994961,-7.997481 18.660788,-22.659528 3.99874,-13.329134 1.332913,-26.658268 -5.331654,-27.991181 z"
     id="path4547" />
  <path
     style="fill:none;stroke:#24211d;stroke-width:1.33291px;stroke-linecap:round;stroke-linejoin:round;stroke-miterlimit:4;stroke-dasharray:none;stroke-opacity:1"
     d="m 42.653228,34.655748 c -7.99748,-1.332913 -15.99496,7.99748 -18.660787,22.659528 -3.99874,13.329133 -1.332913,26.658267 5.331653,27.991181 6.664567,2.665826 15.994961,-7.997481 18.660788,-22.659528 3.99874,-13.329134 1.332913,-26.658268 -5.331654,-27.991181 z"
     id="path4549" />
  <path
     style="fill:#3b3734;fill-opacity:1;fill-rule:evenodd;stroke:none"
     d="m 41.320315,54.649449 c -2.665827,0 -5.331654,2.665827 -6.664567,7.99748 -1.332913,3.99874 0,7.99748 2.665827,9.330394 1.332913,0 3.99874,-2.665827 5.331653,-7.99748 1.332914,-3.998741 0,-9.330394 -1.332913,-9.330394 z"
     id="path4551" />
  <path
     style="fill:none;stroke:#24211d;stroke-width:1.33291px;stroke-linecap:round;stroke-linejoin:round;stroke-miterlimit:4;stroke-dasharray:none;stroke-opacity:1"
     d="m 41.320315,54.649449 c -2.665827,0 -5.331654,2.665827 -6.664567,7.99748 -1.332913,3.99874 0,7.99748 2.665827,9.330394 1.332913,0 3.99874,-2.665827 5.331653,-7.99748 1.332914,-3.998741 0,-9.330394 -1.332913,-9.330394 z"
     id="path4553" />
  <path
     style="fill:none;stroke:#24211d;stroke-width:1.33291px;stroke-linecap:round;stroke-linejoin:round;stroke-miterlimit:4;stroke-dasharray:none;stroke-opacity:1"
     d="M 38.654488,86.63937 C 43.986142,83.973543 49.317795,74.64315 51.983622,63.979843 55.982362,50.650709 54.649449,38.654488 49.317795,34.655748"
     id="path4555" />
  <path
     style="fill:none;stroke:#24211d;stroke-width:1.33291px;stroke-linecap:round;stroke-linejoin:round;stroke-miterlimit:4;stroke-dasharray:none;stroke-opacity:1"
     d="m 129.2926,66.645669 c 2.66583,-1.332913 3.99874,-3.99874 9.33039,-3.99874 2.66583,0 6.66457,2.665827 7.99748,7.99748 1.33292,5.331654 2.66583,19.993701 -6.66456,38.654491 -2.66583,5.33165 -9.3304,18.66079 -18.66079,19.9937 -6.66457,2.66583 -7.99748,-9.3304 -7.99748,-14.66205"
     id="path4557" />
  <path
     style="fill:none;stroke:#24211d;stroke-width:1.33291px;stroke-linecap:round;stroke-linejoin:round;stroke-miterlimit:4;stroke-dasharray:none;stroke-opacity:1"
     d="m 129.2926,78.64189 c 2.66583,-3.99874 3.99874,-2.665827 5.33165,-2.665827 1.33292,1.332913 3.99874,5.331654 3.99874,10.663307 -1.33291,5.331654 -2.66582,14.66205 -10.6633,15.99496 -2.66583,0 -5.33166,-1.33291 -6.66457,-5.331653"
     id="path4559" />
  <path
     style="fill:#a9a8a7;fill-opacity:1;fill-rule:evenodd;stroke:none"
     d="m 89.305197,221.26362 v 0 c 0,0 0,1.33292 0,1.33292 1.332913,2.66582 9.330394,3.99874 18.660783,1.33291 9.3304,-2.66583 15.99496,-6.66457 14.66205,-10.66331 v 0 c 2.66583,3.99874 3.99874,7.99748 5.33166,11.99622 0,0 -2.66583,5.33166 -17.32788,6.66457 -11.996219,0 -14.662046,1.33291 -23.99244,-1.33291 1.332913,-2.66583 1.332913,-6.66457 2.665827,-9.3304 z"
     id="path4561" />
  <path
     style="fill:none;stroke:#24211d;stroke-width:1.33291px;stroke-linecap:round;stroke-linejoin:round;stroke-miterlimit:4;stroke-dasharray:none;stroke-opacity:1"
     d="m 89.305197,221.26362 v 0 c 0,0 0,1.33292 0,1.33292 1.332913,2.66582 9.330394,3.99874 18.660783,1.33291 9.3304,-2.66583 15.99496,-6.66457 14.66205,-10.66331 v 0 c 2.66583,3.99874 3.99874,7.99748 5.33166,11.99622 0,0 -2.66583,5.33166 -17.32788,6.66457 -11.996219,0 -14.662046,1.33291 -23.99244,-1.33291 1.332913,-2.66583 1.332913,-6.66457 2.665827,-9.3304 z"
     id="path4563" />
</svg>
